<svg width="41" height="41" viewBox="0 0 41 41" fill="none" xmlns="http://www.w3.org/2000/svg">
<g id="carbon:play-filled">
<g clip-path="url(#clip0_9_7598)">
<rect x="0.5" y="0.792969" width="40" height="40" rx="20" fill="white"/>
<path id="Vector" d="M13.5925 29.3566L14.2498 28.2939M13.5925 29.3566L14.2497 28.293L14.25 28.2936L14.8088 29.4117L14.25 28.2942L14.25 28.2942L14.2498 28.2939M13.5925 29.3566L14.2498 28.2939M13.5925 29.3566L14.2498 28.2939M15.5 26.271V15.3162L26.4548 20.7936L15.5 26.271ZM20.5 0.792969C16.5444 0.792969 12.6776 1.96595 9.3886 4.16358C6.09962 6.3612 3.53617 9.48478 2.02242 13.1393C0.508665 16.7938 0.112598 20.8152 0.884302 24.6948C1.65601 28.5744 3.56082 32.1381 6.35787 34.9351C9.15492 37.7322 12.7186 39.637 16.5982 40.4087C20.4778 41.1804 24.4992 40.7843 28.1537 39.2706C31.8082 37.7568 34.9318 35.1934 37.1294 31.9044C39.327 28.6154 40.5 24.7486 40.5 20.793C40.5 15.4886 38.3929 10.4016 34.6421 6.65083C30.8914 2.90011 25.8043 0.792969 20.5 0.792969Z" fill="#0164E7" stroke="#0164E7" stroke-width="5"/>
<path id="Vector_2" d="M14.25 29.5423C13.9185 29.5423 13.6005 29.4106 13.3661 29.1762C13.1317 28.9418 13 28.6238 13 28.2923V13.2923C13.0001 13.0793 13.0546 12.8699 13.1584 12.6839C13.2622 12.4979 13.4118 12.3415 13.593 12.2296C13.7742 12.1176 13.981 12.0538 14.1938 12.0442C14.4065 12.0347 14.6182 12.0796 14.8087 12.1748L29.8088 19.6748C30.0161 19.7787 30.1905 19.9383 30.3123 20.1356C30.4341 20.333 30.4987 20.5604 30.4987 20.7923C30.4987 21.0242 30.4341 21.2516 30.3123 21.449C30.1905 21.6463 30.0161 21.8059 29.8088 21.9098L14.8087 29.4098C14.6353 29.4967 14.444 29.542 14.25 29.5423Z" fill="white"/>
</g>
</g>
<defs>
<clipPath id="clip0_9_7598">
<rect x="0.5" y="0.792969" width="40" height="40" rx="20" fill="white"/>
</clipPath>
</defs>
</svg>
