<svg width="50" height="50" viewBox="0 0 50 50" fill="none" xmlns="http://www.w3.org/2000/svg">
<g id="icons8:idea">
<path id="Vector" d="M10.6453 3.75977L8.44531 5.95664L11.7188 9.22852L13.9156 7.03164L10.6437 3.75977H10.6453ZM39.3563 3.75977L36.0828 7.03164L38.2812 9.22852L41.5531 5.9582L39.3563 3.75977ZM25 4.73477C24.4844 4.74102 23.9625 4.7707 23.4375 4.83477C23.4219 4.83477 23.4062 4.83164 23.3906 4.83477C17.0531 5.56133 12.0094 10.6816 11.1328 16.991C10.4328 22.0691 12.5266 26.6738 16.0156 29.6395C17.4428 30.8575 18.4082 32.5289 18.75 34.3738V43.7488H22.3125C22.8562 44.6816 23.8484 45.3113 25 45.3113C26.1516 45.3113 27.1437 44.6816 27.6875 43.7488H31.25V37.4988H31.3969V35.6426C31.3969 33.352 32.5875 31.0426 34.5219 29.2473C37.1094 26.6566 39.0625 22.977 39.0625 18.7504C39.0625 11.0316 32.7094 4.66289 25 4.73477ZM25 7.85977C31.0391 7.77539 35.9375 12.7191 35.9375 18.7504C35.9375 22.0223 34.4219 24.9035 32.3234 27.0004L32.3734 27.0504C30.2881 28.9734 28.9396 31.5641 28.5609 34.3754H21.7266C21.3828 31.6973 20.2344 29.1051 18.0641 27.2457C15.3031 24.902 13.6578 21.3707 14.2078 17.3832C14.8906 12.4613 18.8844 8.50352 23.7781 7.96133C24.1822 7.905 24.5891 7.87161 24.9969 7.86133L25 7.85977ZM3.125 18.7504V21.8754H7.8125V18.7504H3.125ZM42.1875 18.7504V21.8754H46.875V18.7504H42.1875ZM11.7188 31.3973L8.44688 34.6676L10.6453 36.866L13.9141 33.5941L11.7188 31.3973ZM38.2812 31.3973L36.0844 33.5941L39.3547 36.866L41.5531 34.6676L38.2812 31.3973ZM21.875 37.5004H28.125V40.6254H21.875V37.5004Z" fill="url(#paint0_linear_9_8639)"/>
</g>
<defs>
<linearGradient id="paint0_linear_9_8639" x1="6.87072" y1="45.3113" x2="56.9135" y2="45.3113" gradientUnits="userSpaceOnUse">
<stop stop-color="#FD6815"/>
<stop offset="1" stop-color="#FF0000"/>
</linearGradient>
</defs>
</svg>
